
<svg width="128px" height="128px" viewBox="0 0 128 128" version="1.1" xmlns="http://www.w3.org/2000/svg" xmlns:xlink="http://www.w3.org/1999/xlink">
    <g id="Welcome" stroke="none" stroke-width="1" fill="none" fill-rule="evenodd">
        <g id="Desktop">
            <g id="Logo">
                <rect id="Rectangle" fill="#FF6565" fill-rule="evenodd" x="0" y="0" width="128" height="128"></rect>
                <g id="Custom-Name-Title" transform="translate(18.000000, 41.000000)" stroke="#FFFFFF" stroke-width="2">
                    <path d="M0,13.0035882 C16.0358339,10.0148028 28.269735,2.06648412 44.430996,1.53333333" id="Path"></path>
                    <path d="M16.1010014,10.7333333 C15.781751,21.6983772 2.62857143,66.2512592 2.62857143,32.9189781" id="Path-2"></path>
                    <path d="M18.8672136,15.3333333 C11.3971237,36.0803452 30.5751097,14.0723526 19.0157151,16.1055413" id="Path-17"></path>
                    <path d="M35.3214555,17.1081338 C26.9412276,17.9012516 30.4849414,27.2891536 33.8756102,25.4504536 C38.3585748,23.0194207 32.607716,14.5946595 37.7618177,24.1106562" id="Path-20" transform="translate(33.956106, 21.398358) rotate(24.000000) translate(-33.956106, -21.398358) "></path>
                    <path d="M26.5579922,13.8 C18.1269723,18.9793465 31.818149,20.3892945 22.3428571,24.3198827" id="Path-4"></path>
                    <path d="M27.7247945,12.2666667 C28.0796934,16.6145789 28.4345923,20.9624912 28.7894912,25.3104034" id="Path-5" transform="translate(28.257143, 18.788535) scale(-1, 1) translate(-28.257143, -18.788535) "></path>
                    <path d="M29.6136458,9.2 C29.585501,10.0345044 29.5573562,10.8690089 29.5292114,11.7035133" id="Path-6"></path>
                    <path d="M59.3513632,16.8403659 C58.1728515,62.3450721 58.0334816,26.1692683 60.8601509,19.1952915 C61.3568443,17.9698463 69.8328645,14.0788915 64.7822068,22.5733441 C63.5476437,24.649695 61.0754833,25.1999909 59.2221215,26.5133142" id="Path-11" transform="translate(62.470438, 28.131183) rotate(4.000000) translate(-62.470438, -28.131183) "></path>
                    <path d="M39.3842298,6.13333333 C35.6966173,52.9116573 40.960053,-3.29053905 43.5189366,25.7058347" id="Path-32"></path>
                    <path d="M54.1374304,4.7131965 C39.8034721,22.080083 72.5730667,11.1558849 51.0557028,28.8486629" id="Path-33" transform="translate(54.492572, 16.780930) rotate(15.000000) translate(-54.492572, -16.780930) "></path>
                    <path d="M68.485119,21.4571814 C79.690869,13.508187 58.5756857,23.8358926 74.2074437,21.9884215" id="Path-35" transform="translate(71.200643, 20.311881) rotate(4.000000) translate(-71.200643, -20.311881) "></path>
                    <path d="M75.174912,21.4571814 C86.380662,13.508187 65.2654787,23.8358926 80.8972367,21.9884215" id="Path-35" transform="translate(77.890436, 20.311881) rotate(4.000000) translate(-77.890436, -20.311881) "></path>
                    <path d="M89.3540163,1.58618767 C88.143439,8.29665099 87.0089365,15.0281625 85.7222845,21.7175776 C85.5136121,22.8024834 86.9667557,18.9507404 86.1183471,18.4087126 L85.0842353,16.3624132 C84.5322394,16.0097564 83.7761277,16.2347742 83.2240884,16.5596409 C82.7060192,16.8645167 82.2983645,17.4722457 82.1094705,18.1130169 C81.7834969,19.2187934 81.3132298,20.5278713 81.7360618,21.6073647 C82.0406959,22.3850979 83.1189717,22.1728359 83.8104267,22.4555715" id="Path-23" transform="translate(85.461082, 12.020880) rotate(4.000000) translate(-85.461082, -12.020880) "></path>
                </g>
                <rect id="Rectangle" stroke="#FFFFFF" stroke-width="1" x="6" y="6" width="116" height="116"></rect>
            </g>
        </g>
    </g>
</svg>