
<svg width="71px" height="71px" viewBox="0 0 71 71" version="1.1" xmlns="http://www.w3.org/2000/svg" xmlns:xlink="http://www.w3.org/1999/xlink">
    <defs>
        <path d="M19.2098961,4.30246382 C21.9656984,2.69674609 24.9304552,1.62286443 28.1041667,1.08081884 L31.4369227,0.624884126 C32.8689036,0.428983265 34.3167044,0.374672105 35.7593377,0.462737946 L38.9873233,0.659790985 L38.9873233,0.659790985 L42.3856021,1.2743386 C42.9915035,1.38391033 43.5900835,1.5306852 44.1779444,1.7138301 L44.9540759,1.95562968 C45.2847316,2.0586437 45.4692717,2.41020252 45.3662577,2.74085828 C45.3112549,2.91740691 45.181134,3.06067861 45.0106702,3.13235012 C42.0984961,4.35723304 40.0907138,5.35522484 38.9873233,6.12632553 C37.0442755,7.48421785 32.1480027,12.0299749 30.5832601,17.5037171 C29.0185175,22.9774592 29.7079934,27.215223 28.7560814,28.3106351 C27.7515715,29.4665743 23.9863964,29.8350946 17.4605561,29.4161962 L1.81271212,28.9176919 C1.26070742,28.9001063 0.827475139,28.4383622 0.845060737,27.8863575 C0.847705579,27.803337 0.860683811,27.7209694 0.883695558,27.6411581 L1.80334385,24.451552 L1.80334385,24.451552 L3.5975265,19.9112114 L5.50245513,16.6580177 L7.35213301,14.1333516 C8.90473733,12.2118457 10.1754192,10.7877655 11.1641785,9.86111111 C12.6473176,8.47112946 15.0761928,6.71104041 19.2098961,4.30246382 Z" id="path-1"></path>
        <path d="M16.5683666,0.74799056 C17.3344555,0.967866995 18.9231765,2.74333404 21.3345297,6.07439171 C22.7669661,8.2673743 23.7875235,10.147855 24.396202,11.7158339 C24.8114142,12.7854362 25.7687519,15.4716952 26.2692525,17.3320133 C26.8693119,19.5623832 27.2542864,22.7451034 27.2542864,24.7868919 C27.2542864,26.7849439 27.022158,30.338112 26.2692525,33.6502468 C25.6110382,36.5458222 24.4873567,39.2267507 23.659974,40.9236111 C21.8861809,44.5614433 18.963098,49.2544432 18.3904671,48.5087618 C17.8178362,47.7630805 17.3828821,37.9423912 16.8597959,35.9613782 C16.3367097,33.9803651 13.9788175,28.3188031 12.6767596,26.9003081 C11.8087211,25.9546447 10.1163335,24.6320926 7.59959692,22.9326517 C3.66254327,20.8237235 1.37615406,19.3852158 0.7404293,18.6171286 C-0.213157843,17.4649978 -0.117087897,15.9016749 0.311670702,14.1273274 C0.7404293,12.3529798 0.7404293,10.1153565 3.59495265,6.82014403 C6.449476,3.52493155 15.4192333,0.418175908 16.5683666,0.74799056 Z" id="path-3"></path>
        <path d="M17.6693745,0.967082144 L30.2640647,0.0958822945 C31.1837427,0.0322663373 32.1078001,0.0961273321 33.0099837,0.285650927 L37.2199993,1.17005769 C38.265703,1.38973084 39.2639326,1.79386456 40.1679405,2.36353309 L40.9010311,2.82549653 C41.7539125,3.36294726 42.424416,4.1456536 42.8245748,5.07092815 L42.9409947,5.34012228 C43.4263319,6.46235228 43.7734788,7.6394089 43.9748,8.84540315 L44.0930234,9.55360852 C44.2793706,10.6699022 44.2557414,11.81117 44.0233494,12.918794 L43.9320208,13.3540836 C43.7602863,14.1726028 43.4230406,14.9473758 42.9409947,15.6308216 C42.4563874,16.317899 41.8753031,16.931561 41.2156551,17.4528901 L41.1721759,17.4872523 C40.4875206,18.0283451 39.6982339,18.4217979 38.8540303,18.6428286 L37.9318729,18.8842693 C36.4657313,19.2681368 34.9733511,19.5436916 33.4668001,19.7087054 L32.7297587,19.7894343 C30.7312965,20.0083276 28.7223796,20.1180188 26.7119654,20.1180188 L22.9180479,20.1180188 L22.9180479,20.1180188 L21.9053601,20.1180188 C19.8909388,20.1180188 17.877125,20.1879825 15.8675606,20.3277833 L10.8548018,20.6765096 C10.5643744,20.6967139 10.2795611,20.58935 10.0747414,20.3824559 L7.37124593,17.6515804 C5.37158617,15.6316687 3.76850741,13.2546313 2.64514609,10.6437422 L1.47180751,7.91669728 C1.01099172,6.84568043 0.648748463,5.73489311 0.389572687,4.59811864 L0.249641694,3.98436536 C0.126875354,3.44589821 0.463867443,2.90986256 1.00233459,2.78709622 C1.03997699,2.77851405 1.07808481,2.77211904 1.11646666,2.76794331 L17.6693745,0.967082144 L17.6693745,0.967082144 Z" id="path-5"></path>
        <path d="M1.04388609,28.709582 L15.8682695,29.3607937 L15.8682695,29.3607937 C22.5296519,29.4908032 26.5323792,29.4908032 27.8764512,29.3607937 C29.2205232,29.2307841 30.5081498,28.7190581 31.7393309,27.8256156 C32.5041947,27.2857438 33.0004176,26.7838498 33.2279996,26.3199335 C33.4555815,25.8560172 33.6327362,24.8448789 33.7594637,23.2865184 L33.7594637,18.8602492 L34.4208987,15.5523576 L35.6908463,12.7385041 L36.2368963,11.8235225 C36.9671958,10.5998053 37.8937343,9.50449305 38.9794358,8.58141495 L41.3458106,6.56949123 L41.3458106,6.56949123 L45.4481434,3.97049032 C45.5351542,3.91536527 45.6226954,3.86108173 45.7107546,3.80764729 L49.1074918,1.74650249 L49.1074918,1.74650249 C50.0868893,1.04501812 50.7494959,0.694275933 51.0953118,0.694275933 C51.6140355,0.694275933 56.596518,3.46571282 56.029921,3.88780081 C55.463324,4.3098888 54.0522918,4.94613529 51.6439779,5.73442462 C49.235664,6.52271395 45.3204592,8.06902943 43.5131202,9.97545495 C42.3082275,11.2464053 41.2639453,12.7236298 40.3802736,14.4071283 C39.5281499,15.9633702 38.9685617,17.4477439 38.7015091,18.8602492 C38.3009303,20.9790071 38.696749,24.5074031 39.356101,26.6616901 C40.0154529,28.815977 47.5772415,32.208603 48.9763685,33.206949 C50.3754955,34.205295 52.3776594,35.4296957 53.1450072,37.2014604 C53.912355,38.9732251 54.4213047,40.7524805 55.1270368,43.6755145 C55.8327688,46.5985485 56.6143407,57.1958633 55.4582874,59.3226657 C54.3022341,61.4494682 46.9004676,64.2046921 44.4111412,65.0833333 C41.9218147,65.9619746 36.8754224,66.4265575 34.2749466,66.4265575 C31.6744707,66.4265575 26.0490949,65.4854622 24.1597222,64.8224291 C22.2703496,64.1593959 18.5400187,62.9609308 17.9949292,61.8059781 C17.6315361,61.0360096 19.5760282,60.8381178 23.8284055,61.2123025 C28.2141096,61.2818037 31.3473077,61.2818037 33.2279996,61.2123025 C36.0490374,61.1080507 39.8008579,60.4486101 43.5131202,58.5942114 C47.2253824,56.7398127 48.9763091,53.3674916 49.2960843,52.0725177 C49.5092677,51.2092018 49.6812269,49.6385407 49.811962,47.3605345 C49.8164274,45.4170193 49.5378962,43.678957 48.9763685,42.1463474 C48.1340769,39.847433 48.0760823,39.705502 46.3511073,37.9887429 C44.6261323,36.2719838 40.0790945,34.2199593 37.3398006,33.6394277 C35.5136046,33.2524066 33.6467814,33.108247 31.7393309,33.206949 L26.4746924,33.6394277 L13.8283328,34.4330583 L1.06786147,35.3010035 C0.516849875,35.3384823 0.0397841028,34.9221818 0.00230524677,34.3711702 C0.000768858691,34.3485823 -5.11143908e-13,34.3259488 -5.1159077e-13,34.3033087 L-5.1159077e-13,29.7086186 C-5.09696296e-13,29.1563338 0.44771525,28.7086186 1,28.7086186 C1.01463398,28.7086186 1.02926621,28.7089398 1.04388609,28.709582 Z" id="path-7"></path>
    </defs>
    <g id="Symbols" stroke="none" stroke-width="1" fill="none" fill-rule="evenodd">
        <g id="Logo-plane">
            <g id="Group">
                <g id="Group-3" transform="translate(0.436165, 0.000000)">
                    <g id="COLORS-SCREEN">
                        <mask id="mask-2" fill="white">
                            <use xlink:href="#path-1"></use>
                        </mask>
                        <use id="Mask" fill="#FFFFFF" xlink:href="#path-1"></use>
                        <g opacity="0.650576637" mask="url(#mask-2)" id="Group-9">
                            <g transform="translate(-0.436165, 0.000000)">
                                <g>
                                    <rect id="Rectangle" fill="#633DB6" x="0" y="0" width="3" height="75"></rect>
                                    <rect id="Rectangle" fill="#35B7B7" x="4" y="0" width="3" height="75"></rect>
                                    <rect id="Rectangle" fill="#D44289" x="8" y="0" width="3" height="75"></rect>
                                    <rect id="Rectangle" fill="#F4290B" x="12" y="0" width="3" height="75"></rect>
                                    <rect id="Rectangle" fill="#F4B804" x="16" y="0" width="3" height="75"></rect>
                                    <rect id="Rectangle" fill="#00B75B" x="20" y="0" width="3" height="75"></rect>
                                    <rect id="Rectangle" fill="#633DB6" x="24" y="0" width="3" height="75"></rect>
                                    <rect id="Rectangle" fill="#35B7B7" x="28" y="0" width="3" height="75"></rect>
                                    <rect id="Rectangle" fill="#D44289" x="32" y="0" width="3" height="75"></rect>
                                    <rect id="Rectangle" fill="#F4290B" x="36" y="0" width="3" height="75"></rect>
                                    <rect id="Rectangle" fill="#F4B804" x="40" y="0" width="3" height="75"></rect>
                                    <rect id="Rectangle" fill="#00B75B" x="44" y="0" width="3" height="75"></rect>
                                    <rect id="Rectangle" fill="#633DB6" x="48" y="0" width="3" height="75"></rect>
                                    <rect id="Rectangle" fill="#35B7B7" x="52" y="0" width="3" height="75"></rect>
                                    <rect id="Rectangle" fill="#D44289" x="56" y="0" width="3" height="75"></rect>
                                    <rect id="Rectangle" fill="#F4290B" x="60" y="0" width="3" height="75"></rect>
                                    <rect id="Rectangle" fill="#F4B804" x="64" y="0" width="3" height="75"></rect>
                                    <rect id="Rectangle" fill="#00B75B" x="68" y="0" width="3" height="75"></rect>
                                </g>
                            </g>
                        </g>
                    </g>
                </g>
                <g id="Group-3" transform="translate(42.838942, 9.861111)">
                    <g id="COLORS-SCREEN">
                        <mask id="mask-4" fill="white">
                            <use xlink:href="#path-3"></use>
                        </mask>
                        <use id="Mask" fill="#FFFFFF" xlink:href="#path-3"></use>
                        <g opacity="0.650576637" mask="url(#mask-4)" id="Group-9">
                            <g transform="translate(-42.838942, -9.861111)">
                                <g>
                                    <rect id="Rectangle" fill="#633DB6" x="0" y="0" width="3" height="75"></rect>
                                    <rect id="Rectangle" fill="#35B7B7" x="4" y="0" width="3" height="75"></rect>
                                    <rect id="Rectangle" fill="#D44289" x="8" y="0" width="3" height="75"></rect>
                                    <rect id="Rectangle" fill="#F4290B" x="12" y="0" width="3" height="75"></rect>
                                    <rect id="Rectangle" fill="#F4B804" x="16" y="0" width="3" height="75"></rect>
                                    <rect id="Rectangle" fill="#00B75B" x="20" y="0" width="3" height="75"></rect>
                                    <rect id="Rectangle" fill="#633DB6" x="24" y="0" width="3" height="75"></rect>
                                    <rect id="Rectangle" fill="#35B7B7" x="28" y="0" width="3" height="75"></rect>
                                    <rect id="Rectangle" fill="#D44289" x="32" y="0" width="3" height="75"></rect>
                                    <rect id="Rectangle" fill="#F4290B" x="36" y="0" width="3" height="75"></rect>
                                    <rect id="Rectangle" fill="#F4B804" x="40" y="0" width="3" height="75"></rect>
                                    <rect id="Rectangle" fill="#00B75B" x="44" y="0" width="3" height="75"></rect>
                                    <rect id="Rectangle" fill="#633DB6" x="48" y="0" width="3" height="75"></rect>
                                    <rect id="Rectangle" fill="#35B7B7" x="52" y="0" width="3" height="75"></rect>
                                    <rect id="Rectangle" fill="#D44289" x="56" y="0" width="3" height="75"></rect>
                                    <rect id="Rectangle" fill="#F4290B" x="60" y="0" width="3" height="75"></rect>
                                    <rect id="Rectangle" fill="#F4B804" x="64" y="0" width="3" height="75"></rect>
                                    <rect id="Rectangle" fill="#00B75B" x="68" y="0" width="3" height="75"></rect>
                                </g>
                            </g>
                        </g>
                    </g>
                </g>
                <g id="Group-3" transform="translate(1.422276, 40.430556)">
                    <g id="COLORS-SCREEN">
                        <mask id="mask-6" fill="white">
                            <use xlink:href="#path-5"></use>
                        </mask>
                        <use id="Mask" fill="#FFFFFF" xlink:href="#path-5"></use>
                        <g opacity="0.650576637" mask="url(#mask-6)" id="Group-9">
                            <g transform="translate(-1.422276, -40.430556)">
                                <g>
                                    <rect id="Rectangle" fill="#633DB6" x="0" y="0" width="3" height="75"></rect>
                                    <rect id="Rectangle" fill="#35B7B7" x="4" y="0" width="3" height="75"></rect>
                                    <rect id="Rectangle" fill="#D44289" x="8" y="0" width="3" height="75"></rect>
                                    <rect id="Rectangle" fill="#F4290B" x="12" y="0" width="3" height="75"></rect>
                                    <rect id="Rectangle" fill="#F4B804" x="16" y="0" width="3" height="75"></rect>
                                    <rect id="Rectangle" fill="#00B75B" x="20" y="0" width="3" height="75"></rect>
                                    <rect id="Rectangle" fill="#633DB6" x="24" y="0" width="3" height="75"></rect>
                                    <rect id="Rectangle" fill="#35B7B7" x="28" y="0" width="3" height="75"></rect>
                                    <rect id="Rectangle" fill="#D44289" x="32" y="0" width="3" height="75"></rect>
                                    <rect id="Rectangle" fill="#F4290B" x="36" y="0" width="3" height="75"></rect>
                                    <rect id="Rectangle" fill="#F4B804" x="40" y="0" width="3" height="75"></rect>
                                    <rect id="Rectangle" fill="#00B75B" x="44" y="0" width="3" height="75"></rect>
                                    <rect id="Rectangle" fill="#633DB6" x="48" y="0" width="3" height="75"></rect>
                                    <rect id="Rectangle" fill="#35B7B7" x="52" y="0" width="3" height="75"></rect>
                                    <rect id="Rectangle" fill="#D44289" x="56" y="0" width="3" height="75"></rect>
                                    <rect id="Rectangle" fill="#F4290B" x="60" y="0" width="3" height="75"></rect>
                                    <rect id="Rectangle" fill="#F4B804" x="64" y="0" width="3" height="75"></rect>
                                    <rect id="Rectangle" fill="#00B75B" x="68" y="0" width="3" height="75"></rect>
                                </g>
                            </g>
                        </g>
                    </g>
                </g>
                <g id="Group-3" transform="translate(0.436165, 3.944444)">
                    <g id="COLORS-SCREEN">
                        <mask id="mask-8" fill="white">
                            <use xlink:href="#path-7"></use>
                        </mask>
                        <use id="Mask" fill="#FFFFFF" xlink:href="#path-7"></use>
                        <g opacity="0.650576637" mask="url(#mask-8)" id="Group-9">
                            <g transform="translate(-0.436165, -3.944444)">
                                <g>
                                    <rect id="Rectangle" fill="#633DB6" x="0" y="0" width="3" height="75"></rect>
                                    <rect id="Rectangle" fill="#35B7B7" x="4" y="0" width="3" height="75"></rect>
                                    <rect id="Rectangle" fill="#D44289" x="8" y="0" width="3" height="75"></rect>
                                    <rect id="Rectangle" fill="#F4290B" x="12" y="0" width="3" height="75"></rect>
                                    <rect id="Rectangle" fill="#F4B804" x="16" y="0" width="3" height="75"></rect>
                                    <rect id="Rectangle" fill="#00B75B" x="20" y="0" width="3" height="75"></rect>
                                    <rect id="Rectangle" fill="#633DB6" x="24" y="0" width="3" height="75"></rect>
                                    <rect id="Rectangle" fill="#35B7B7" x="28" y="0" width="3" height="75"></rect>
                                    <rect id="Rectangle" fill="#D44289" x="32" y="0" width="3" height="75"></rect>
                                    <rect id="Rectangle" fill="#F4290B" x="36" y="0" width="3" height="75"></rect>
                                    <rect id="Rectangle" fill="#F4B804" x="40" y="0" width="3" height="75"></rect>
                                    <rect id="Rectangle" fill="#00B75B" x="44" y="0" width="3" height="75"></rect>
                                    <rect id="Rectangle" fill="#633DB6" x="48" y="0" width="3" height="75"></rect>
                                    <rect id="Rectangle" fill="#35B7B7" x="52" y="0" width="3" height="75"></rect>
                                    <rect id="Rectangle" fill="#D44289" x="56" y="0" width="3" height="75"></rect>
                                    <rect id="Rectangle" fill="#F4290B" x="60" y="0" width="3" height="75"></rect>
                                    <rect id="Rectangle" fill="#F4B804" x="64" y="0" width="3" height="75"></rect>
                                    <rect id="Rectangle" fill="#00B75B" x="68" y="0" width="3" height="75"></rect>
                                </g>
                            </g>
                        </g>
                    </g>
                </g>
            </g>
        </g>
    </g>
</svg>